<svg xmlns="http://www.w3.org/2000/svg" xmlns:xlink="http://www.w3.org/1999/xlink" width="500" zoomAndPan="magnify" viewBox="0 0 375 374.999991" height="500" preserveAspectRatio="xMidYMid meet" version="1.0"><defs><g/><clipPath id="c56f037a97"><path d="M 35.632812 161.625 L 339.382812 161.625 L 339.382812 206.625 L 35.632812 206.625 Z M 35.632812 161.625 " clip-rule="nonzero"/></clipPath></defs><g fill="#d9d9d9" fill-opacity="1"><g transform="translate(71.4924, 238.165506)"><g><path d="M 0 -107.949219 C 6.652344 -107.949219 10.140625 -101.953125 14.9375 -89.957031 L 49.832031 2.179688 L 50.921875 2.179688 L 73.058594 -56.265625 L 95.191406 2.179688 L 96.28125 2.179688 L 131.175781 -89.957031 C 135.753906 -102.0625 139.464844 -107.949219 146.113281 -107.949219 L 146.113281 -109.039062 L 115.257812 -109.039062 L 115.257812 -107.949219 C 130.628906 -107.949219 130.414062 -96.5 127.578125 -87.777344 C 119.179688 -61.933594 108.933594 -36.203125 99.882812 -10.46875 L 77.746094 -68.695312 L 85.816406 -89.957031 C 90.394531 -102.0625 94.101562 -107.949219 100.753906 -107.949219 L 100.753906 -109.039062 L 45.359375 -109.039062 L 45.359375 -107.949219 C 52.011719 -107.949219 55.5 -101.953125 60.300781 -89.957031 L 72.183594 -58.664062 C 66.296875 -42.527344 60.191406 -26.496094 54.519531 -10.46875 L 25.078125 -88.105469 C 20.9375 -99.117188 20.390625 -107.949219 35.765625 -107.949219 L 35.765625 -109.039062 L 0 -109.039062 Z M 75.238281 -107.839844 C 87.886719 -107.839844 84.726562 -95.300781 82.214844 -87.777344 C 80.363281 -82.324219 78.617188 -76.875 76.765625 -71.53125 L 70.441406 -88.105469 C 66.84375 -97.484375 64.769531 -107.839844 75.238281 -107.839844 Z M 75.238281 -107.839844 "/></g></g></g><g fill="#d9d9d9" fill-opacity="1"><g transform="translate(207.999269, 238.165506)"><g><path d="M 3.269531 -19.082031 C 3.269531 -7.742188 10.46875 2.179688 23.117188 2.179688 C 44.816406 2.179688 57.574219 -17.011719 57.574219 -43.507812 C 57.574219 -48.742188 57.355469 -53.101562 56.917969 -56.59375 L 70.441406 -20.9375 C 74.582031 -9.921875 75.128906 -1.089844 59.753906 -1.089844 L 59.753906 0 L 95.519531 0 L 95.519531 -1.089844 C 88.867188 -1.089844 85.378906 -7.085938 80.582031 -19.082031 L 45.6875 -111.222656 L 44.597656 -111.222656 C 37.726562 -93.121094 33.695312 -82.324219 27.042969 -64.769531 C 25.953125 -61.933594 26.496094 -58.992188 29.550781 -58.992188 C 35.765625 -58.992188 39.035156 -70.441406 44.269531 -70.441406 C 45.6875 -70.441406 46.886719 -69.566406 46.886719 -67.496094 C 46.886719 -56.15625 3.269531 -45.90625 3.269531 -19.082031 Z M 12.539062 -21.152344 C 12.539062 -48.085938 48.085938 -52.667969 48.085938 -67.277344 C 48.085938 -70.113281 46.558594 -71.53125 44.488281 -71.53125 C 38.710938 -71.53125 34.675781 -60.082031 29.660156 -60.082031 C 27.914062 -60.082031 27.042969 -61.390625 28.460938 -65.207031 L 41 -98.574219 L 54.191406 -63.789062 C 56.15625 -57.355469 56.484375 -51.359375 56.484375 -43.289062 C 56.484375 -25.40625 47.867188 -3.054688 29.660156 -3.054688 C 18.972656 -3.054688 12.539062 -10.902344 12.539062 -21.152344 Z M 12.539062 -21.152344 "/></g></g></g><g clip-path="url(#c56f037a97)"><path fill="#000000" d="M 35.648438 161.625 L 339.363281 161.625 L 339.363281 206.625 L 35.648438 206.625 L 35.648438 161.625 " fill-opacity="1" fill-rule="nonzero"/></g><g fill="#dfb15b" fill-opacity="1"><g transform="translate(37.720207, 208.860337)"><g><path d="M 24.894531 -24.597656 C 22.761719 -22.960938 20.382812 -22.167969 17.753906 -22.167969 C 16.808594 -22.167969 16.214844 -22.414062 15.917969 -22.910156 C 15.570312 -23.355469 15.570312 -24.148438 15.917969 -25.242188 C 16.066406 -25.6875 15.96875 -25.984375 15.71875 -26.183594 C 15.421875 -26.332031 15.074219 -26.382812 14.726562 -26.28125 C 14.378906 -26.132812 14.082031 -25.835938 13.933594 -25.339844 C 13.390625 -23.40625 12.695312 -22.015625 11.851562 -21.175781 C 11.007812 -20.332031 10.363281 -19.933594 9.867188 -19.933594 C 9.273438 -19.933594 8.925781 -20.230469 8.777344 -20.828125 C 8.628906 -21.421875 8.628906 -22.117188 8.726562 -22.960938 C 8.828125 -23.800781 8.976562 -24.546875 9.175781 -25.242188 C 9.273438 -25.6875 9.175781 -26.035156 8.875 -26.183594 C 8.578125 -26.332031 8.230469 -26.382812 7.882812 -26.230469 C 7.539062 -26.082031 7.289062 -25.835938 7.140625 -25.390625 C 6.695312 -23.953125 6.199219 -22.8125 5.652344 -22.015625 C 5.109375 -21.222656 4.5625 -20.679688 4.015625 -20.382812 C 3.472656 -20.035156 3.023438 -19.886719 2.679688 -19.886719 C 2.03125 -19.886719 1.6875 -20.183594 1.636719 -20.828125 C 1.539062 -21.472656 1.585938 -22.167969 1.785156 -23.007812 C 1.933594 -23.851562 2.132812 -24.597656 2.378906 -25.242188 C 2.527344 -25.6875 2.429688 -25.984375 2.183594 -26.183594 C 1.933594 -26.332031 1.585938 -26.382812 1.238281 -26.28125 C 0.894531 -26.132812 0.59375 -25.835938 0.398438 -25.390625 C -0.0507812 -24.199219 -0.296875 -23.058594 -0.445312 -21.917969 C -0.59375 -20.777344 -0.445312 -19.785156 -0.0976562 -19.042969 C 0.246094 -18.296875 0.992188 -17.902344 2.132812 -17.902344 C 2.679688 -17.902344 3.371094 -18.101562 4.164062 -18.445312 C 4.957031 -18.792969 5.753906 -19.488281 6.59375 -20.429688 C 6.792969 -19.539062 7.140625 -18.894531 7.636719 -18.496094 C 8.132812 -18.101562 8.679688 -17.902344 9.324219 -17.902344 C 10.066406 -17.902344 10.910156 -18.199219 11.800781 -18.746094 C 12.644531 -19.289062 13.488281 -20.132812 14.230469 -21.273438 C 14.828125 -20.53125 15.820312 -20.183594 17.207031 -20.183594 C 20.429688 -20.183594 23.355469 -21.222656 26.035156 -23.257812 C 26.382812 -23.605469 26.578125 -23.953125 26.53125 -24.296875 C 26.480469 -24.597656 26.28125 -24.792969 25.984375 -24.941406 C 25.636719 -25.042969 25.289062 -24.941406 24.894531 -24.597656 Z M 24.894531 -24.597656 "/></g></g></g><g fill="#dfb15b" fill-opacity="1"><g transform="translate(66.217341, 208.860337)"><g><path d="M 5.554688 -22.511719 C 5.058594 -22.710938 4.761719 -22.960938 4.613281 -23.308594 C 4.464844 -23.652344 4.414062 -23.953125 4.5625 -24.25 C 4.710938 -24.597656 4.910156 -24.792969 5.15625 -24.792969 C 5.40625 -24.792969 5.554688 -24.597656 5.703125 -24.25 C 5.800781 -23.851562 5.753906 -23.257812 5.554688 -22.511719 Z M 15.421875 -24.597656 C 12.84375 -22.8125 10.164062 -22.015625 7.4375 -22.167969 C 7.984375 -24 7.984375 -25.242188 7.339844 -25.984375 C 6.695312 -26.726562 5.851562 -26.925781 4.859375 -26.679688 C 3.867188 -26.429688 3.125 -25.6875 2.628906 -24.445312 C 2.332031 -23.703125 2.332031 -22.960938 2.578125 -22.265625 C 2.828125 -21.519531 3.472656 -20.976562 4.464844 -20.628906 C 4.015625 -20.183594 3.472656 -19.933594 2.875 -19.933594 C 1.933594 -19.933594 1.488281 -20.382812 1.4375 -21.222656 C 1.386719 -22.066406 1.585938 -23.007812 2.03125 -23.953125 C 2.183594 -24.398438 2.183594 -24.746094 1.933594 -24.941406 C 1.6875 -25.140625 1.386719 -25.191406 1.042969 -25.140625 C 0.695312 -25.042969 0.398438 -24.792969 0.148438 -24.347656 C -0.695312 -22.316406 -0.894531 -20.726562 -0.347656 -19.585938 C 0.199219 -18.445312 1.089844 -17.902344 2.332031 -17.902344 C 3.816406 -17.902344 5.207031 -18.695312 6.445312 -20.230469 C 7.933594 -20.082031 9.570312 -20.230469 11.40625 -20.679688 C 13.191406 -21.125 14.875 -21.96875 16.464844 -23.15625 C 16.808594 -23.503906 17.007812 -23.800781 16.960938 -24.148438 C 16.910156 -24.496094 16.761719 -24.695312 16.464844 -24.84375 C 16.164062 -24.992188 15.820312 -24.894531 15.421875 -24.597656 Z M 15.421875 -24.597656 "/></g></g></g><g fill="#dfb15b" fill-opacity="1"><g transform="translate(85.193725, 208.860337)"><g><path d="M 21.917969 -24.695312 C 21.570312 -24.445312 21.222656 -24.148438 20.875 -23.902344 C 19.734375 -23.007812 18.546875 -22.167969 17.257812 -21.324219 C 15.917969 -20.480469 14.777344 -20.035156 13.734375 -20.035156 C 13.089844 -20.035156 12.695312 -20.230469 12.496094 -20.578125 C 12.25 -20.925781 12.148438 -21.621094 12.148438 -22.5625 C 12.199219 -23.109375 12.148438 -23.652344 12.101562 -24.25 C 12 -24.792969 11.753906 -25.289062 11.40625 -25.6875 C 11.058594 -26.082031 10.414062 -26.28125 9.570312 -26.28125 C 8.332031 -26.28125 6.941406 -25.785156 5.503906 -24.792969 C 4.066406 -23.753906 2.578125 -22.5625 1.089844 -21.125 C 1.339844 -22.066406 1.585938 -23.007812 1.835938 -23.902344 C 1.984375 -24.445312 2.132812 -24.894531 2.230469 -25.289062 C 2.332031 -25.738281 2.230469 -26.035156 1.984375 -26.183594 C 1.6875 -26.332031 1.339844 -26.332031 0.992188 -26.183594 C 0.644531 -26.035156 0.398438 -25.738281 0.246094 -25.289062 C 0.0976562 -24.84375 -0.0507812 -24.347656 -0.199219 -23.800781 C -0.445312 -22.910156 -0.644531 -22.015625 -0.894531 -21.125 C -1.140625 -20.230469 -1.238281 -19.539062 -1.289062 -18.992188 C -1.339844 -18.347656 -1.140625 -18 -0.695312 -17.851562 C -0.296875 -17.703125 0.246094 -17.902344 0.894531 -18.496094 C 2.378906 -19.933594 3.867188 -21.273438 5.355469 -22.511719 C 6.792969 -23.703125 8.035156 -24.296875 9.023438 -24.296875 C 9.472656 -24.296875 9.769531 -24.148438 9.917969 -23.851562 C 10.066406 -23.503906 10.117188 -22.910156 10.117188 -22.015625 C 10.066406 -21.472656 10.117188 -20.875 10.214844 -20.28125 C 10.3125 -19.636719 10.5625 -19.140625 11.007812 -18.695312 C 11.453125 -18.25 12.148438 -18.050781 13.191406 -18.050781 C 14.578125 -18.050781 16.015625 -18.546875 17.554688 -19.488281 C 19.089844 -20.429688 20.53125 -21.421875 21.867188 -22.464844 C 22.214844 -22.710938 22.511719 -22.960938 22.859375 -23.207031 C 23.257812 -23.554688 23.457031 -23.851562 23.457031 -24.199219 C 23.40625 -24.546875 23.257812 -24.746094 22.960938 -24.894531 C 22.660156 -25.042969 22.316406 -24.941406 21.917969 -24.695312 Z M 21.917969 -24.695312 "/></g></g></g><g fill="#dfb15b" fill-opacity="1"><g transform="translate(110.517272, 208.860337)"><g><path d="M 19.539062 -24.496094 C 16.117188 -21.371094 13.339844 -19.886719 11.257812 -20.082031 C 10.117188 -20.230469 9.519531 -20.777344 9.472656 -21.671875 C 9.421875 -22.5625 9.570312 -23.605469 9.917969 -24.746094 C 9.96875 -24.992188 10.015625 -25.191406 10.066406 -25.4375 C 10.164062 -25.886719 10.117188 -26.183594 9.867188 -26.332031 C 9.621094 -26.480469 9.324219 -26.480469 8.976562 -26.429688 C 8.628906 -26.332031 8.378906 -26.082031 8.132812 -25.6875 C 6.097656 -21.917969 4.265625 -20.035156 2.527344 -20.035156 C 1.984375 -20.035156 1.636719 -20.332031 1.539062 -20.925781 C 1.4375 -21.519531 1.488281 -22.214844 1.6875 -23.007812 C 1.882812 -23.800781 2.132812 -24.546875 2.378906 -25.191406 C 2.527344 -25.636719 2.527344 -25.933594 2.28125 -26.132812 C 2.03125 -26.332031 1.6875 -26.382812 1.339844 -26.28125 C 0.992188 -26.183594 0.695312 -25.933594 0.496094 -25.488281 C -0.0507812 -24.25 -0.347656 -23.109375 -0.496094 -21.96875 C -0.644531 -20.828125 -0.496094 -19.933594 -0.148438 -19.191406 C 0.199219 -18.445312 0.941406 -18.050781 2.03125 -18.050781 C 2.480469 -18.050781 3.222656 -18.25 4.164062 -18.597656 C 5.109375 -18.941406 6.199219 -19.835938 7.390625 -21.175781 C 7.4375 -20.082031 7.835938 -19.289062 8.480469 -18.792969 C 9.125 -18.296875 10.015625 -18.050781 11.15625 -18.050781 C 13.785156 -18.050781 17.007812 -19.785156 20.726562 -23.207031 C 21.074219 -23.554688 21.222656 -23.902344 21.175781 -24.25 C 21.125 -24.546875 20.925781 -24.746094 20.628906 -24.84375 C 20.28125 -24.941406 19.933594 -24.84375 19.539062 -24.496094 Z M 19.539062 -24.496094 "/></g></g></g><g fill="#dfb15b" fill-opacity="1"><g transform="translate(133.510224, 208.860337)"><g><path d="M 5.554688 -22.511719 C 5.058594 -22.710938 4.761719 -22.960938 4.613281 -23.308594 C 4.464844 -23.652344 4.414062 -23.953125 4.5625 -24.25 C 4.710938 -24.597656 4.910156 -24.792969 5.15625 -24.792969 C 5.40625 -24.792969 5.554688 -24.597656 5.703125 -24.25 C 5.800781 -23.851562 5.753906 -23.257812 5.554688 -22.511719 Z M 15.421875 -24.597656 C 12.84375 -22.8125 10.164062 -22.015625 7.4375 -22.167969 C 7.984375 -24 7.984375 -25.242188 7.339844 -25.984375 C 6.695312 -26.726562 5.851562 -26.925781 4.859375 -26.679688 C 3.867188 -26.429688 3.125 -25.6875 2.628906 -24.445312 C 2.332031 -23.703125 2.332031 -22.960938 2.578125 -22.265625 C 2.828125 -21.519531 3.472656 -20.976562 4.464844 -20.628906 C 4.015625 -20.183594 3.472656 -19.933594 2.875 -19.933594 C 1.933594 -19.933594 1.488281 -20.382812 1.4375 -21.222656 C 1.386719 -22.066406 1.585938 -23.007812 2.03125 -23.953125 C 2.183594 -24.398438 2.183594 -24.746094 1.933594 -24.941406 C 1.6875 -25.140625 1.386719 -25.191406 1.042969 -25.140625 C 0.695312 -25.042969 0.398438 -24.792969 0.148438 -24.347656 C -0.695312 -22.316406 -0.894531 -20.726562 -0.347656 -19.585938 C 0.199219 -18.445312 1.089844 -17.902344 2.332031 -17.902344 C 3.816406 -17.902344 5.207031 -18.695312 6.445312 -20.230469 C 7.933594 -20.082031 9.570312 -20.230469 11.40625 -20.679688 C 13.191406 -21.125 14.875 -21.96875 16.464844 -23.15625 C 16.808594 -23.503906 17.007812 -23.800781 16.960938 -24.148438 C 16.910156 -24.496094 16.761719 -24.695312 16.464844 -24.84375 C 16.164062 -24.992188 15.820312 -24.894531 15.421875 -24.597656 Z M 15.421875 -24.597656 "/></g></g></g><g fill="#dfb15b" fill-opacity="1"><g transform="translate(152.48661, 208.860337)"><g><path d="M 13.636719 -24.597656 C 11.503906 -22.859375 9.769531 -21.671875 8.527344 -21.027344 C 7.289062 -20.382812 6.050781 -20.035156 4.910156 -20.035156 C 3.324219 -20.035156 2.378906 -20.777344 2.132812 -22.265625 C 1.882812 -23.703125 2.03125 -25.835938 2.679688 -28.5625 C 3.273438 -31.289062 4.117188 -34.613281 5.15625 -38.429688 C 5.554688 -39.871094 5.949219 -41.355469 6.398438 -42.945312 C 6.546875 -43.589844 6.742188 -44.234375 6.941406 -44.878906 L 7.4375 -46.761719 C 7.539062 -47.207031 7.4375 -47.554688 7.191406 -47.703125 C 6.894531 -47.851562 6.546875 -47.851562 6.199219 -47.703125 C 5.851562 -47.554688 5.601562 -47.207031 5.453125 -46.761719 L 4.910156 -44.878906 C 4.761719 -44.234375 4.5625 -43.589844 4.414062 -42.945312 C 4.015625 -41.457031 3.621094 -40.019531 3.222656 -38.679688 C 1.984375 -34.167969 1.042969 -30.347656 0.398438 -27.324219 C -0.246094 -24.25 -0.296875 -21.917969 0.246094 -20.382812 C 0.742188 -18.84375 2.132812 -18.050781 4.363281 -18.050781 C 6 -18.050781 7.636719 -18.496094 9.175781 -19.339844 C 10.710938 -20.183594 12.546875 -21.472656 14.679688 -23.207031 C 15.074219 -23.554688 15.273438 -23.851562 15.222656 -24.199219 C 15.175781 -24.546875 14.976562 -24.746094 14.679688 -24.894531 C 14.378906 -24.992188 14.035156 -24.894531 13.636719 -24.597656 Z M 13.636719 -24.597656 "/></g></g></g><g fill="#dfb15b" fill-opacity="1"><g transform="translate(169.529093, 208.860337)"><g><path d="M 17.058594 -24.496094 C 13.585938 -21.371094 10.808594 -19.886719 8.726562 -20.082031 C 7.539062 -20.230469 6.941406 -20.828125 6.941406 -21.820312 C 6.894531 -22.761719 7.089844 -23.902344 7.488281 -25.140625 L 7.585938 -25.4375 C 7.636719 -25.886719 7.585938 -26.183594 7.339844 -26.332031 C 7.089844 -26.480469 6.792969 -26.480469 6.445312 -26.382812 C 6.097656 -26.28125 5.851562 -26.035156 5.652344 -25.636719 C 4.808594 -24.101562 4.066406 -22.910156 3.472656 -22.117188 C 2.875 -21.273438 2.429688 -20.726562 2.082031 -20.480469 C 1.734375 -20.183594 1.488281 -20.035156 1.386719 -20.035156 C 1.339844 -20.035156 1.238281 -20.035156 1.191406 -20.082031 C 1.089844 -20.082031 0.992188 -20.132812 0.941406 -20.230469 C 0.894531 -20.332031 0.84375 -20.480469 0.84375 -20.726562 C 0.84375 -21.222656 0.992188 -21.769531 1.289062 -22.414062 C 1.539062 -23.007812 1.835938 -23.503906 2.183594 -23.902344 C 2.527344 -24.296875 2.777344 -24.398438 3.023438 -24.199219 C 3.273438 -23.953125 3.621094 -23.902344 3.96875 -24.050781 C 4.3125 -24.199219 4.613281 -24.445312 4.808594 -24.792969 C 4.957031 -25.140625 4.957031 -25.4375 4.710938 -25.738281 C 3.96875 -26.480469 3.125 -26.578125 2.183594 -26.082031 C 1.238281 -25.585938 0.445312 -24.792969 -0.199219 -23.652344 C -0.894531 -22.511719 -1.238281 -21.324219 -1.238281 -20.132812 C -1.140625 -18.746094 -0.445312 -18.050781 0.84375 -18.050781 C 2.082031 -18.050781 3.421875 -19.042969 4.859375 -20.976562 C 5.007812 -19.933594 5.40625 -19.191406 6.050781 -18.746094 C 6.695312 -18.296875 7.539062 -18.050781 8.628906 -18.050781 C 11.257812 -18.050781 14.480469 -19.785156 18.25 -23.207031 C 18.597656 -23.554688 18.746094 -23.902344 18.695312 -24.25 C 18.597656 -24.546875 18.398438 -24.746094 18.101562 -24.84375 C 17.753906 -24.941406 17.40625 -24.84375 17.058594 -24.496094 Z M 17.058594 -24.496094 "/></g></g></g><g fill="#dfb15b" fill-opacity="1"><g transform="translate(190.141857, 208.860337)"><g/></g></g><g fill="#dfb15b" fill-opacity="1"><g transform="translate(219.184454, 208.860337)"><g><path d="M 17.058594 -24.496094 C 13.585938 -21.371094 10.808594 -19.886719 8.726562 -20.082031 C 7.539062 -20.230469 6.941406 -20.828125 6.941406 -21.820312 C 6.894531 -22.761719 7.089844 -23.902344 7.488281 -25.140625 L 7.585938 -25.4375 C 7.636719 -25.886719 7.585938 -26.183594 7.339844 -26.332031 C 7.089844 -26.480469 6.792969 -26.480469 6.445312 -26.382812 C 6.097656 -26.28125 5.851562 -26.035156 5.652344 -25.636719 C 4.808594 -24.101562 4.066406 -22.910156 3.472656 -22.117188 C 2.875 -21.273438 2.429688 -20.726562 2.082031 -20.480469 C 1.734375 -20.183594 1.488281 -20.035156 1.386719 -20.035156 C 1.339844 -20.035156 1.238281 -20.035156 1.191406 -20.082031 C 1.089844 -20.082031 0.992188 -20.132812 0.941406 -20.230469 C 0.894531 -20.332031 0.84375 -20.480469 0.84375 -20.726562 C 0.84375 -21.222656 0.992188 -21.769531 1.289062 -22.414062 C 1.539062 -23.007812 1.835938 -23.503906 2.183594 -23.902344 C 2.527344 -24.296875 2.777344 -24.398438 3.023438 -24.199219 C 3.273438 -23.953125 3.621094 -23.902344 3.96875 -24.050781 C 4.3125 -24.199219 4.613281 -24.445312 4.808594 -24.792969 C 4.957031 -25.140625 4.957031 -25.4375 4.710938 -25.738281 C 3.96875 -26.480469 3.125 -26.578125 2.183594 -26.082031 C 1.238281 -25.585938 0.445312 -24.792969 -0.199219 -23.652344 C -0.894531 -22.511719 -1.238281 -21.324219 -1.238281 -20.132812 C -1.140625 -18.746094 -0.445312 -18.050781 0.84375 -18.050781 C 2.082031 -18.050781 3.421875 -19.042969 4.859375 -20.976562 C 5.007812 -19.933594 5.40625 -19.191406 6.050781 -18.746094 C 6.695312 -18.296875 7.539062 -18.050781 8.628906 -18.050781 C 11.257812 -18.050781 14.480469 -19.785156 18.25 -23.207031 C 18.597656 -23.554688 18.746094 -23.902344 18.695312 -24.25 C 18.597656 -24.546875 18.398438 -24.746094 18.101562 -24.84375 C 17.753906 -24.941406 17.40625 -24.84375 17.058594 -24.496094 Z M 17.058594 -24.496094 "/></g></g></g><g fill="#dfb15b" fill-opacity="1"><g transform="translate(239.797219, 208.860337)"><g><path d="M 13.636719 -24.597656 C 11.503906 -22.859375 9.769531 -21.671875 8.527344 -21.027344 C 7.289062 -20.382812 6.050781 -20.035156 4.910156 -20.035156 C 3.324219 -20.035156 2.378906 -20.777344 2.132812 -22.265625 C 1.882812 -23.703125 2.03125 -25.835938 2.679688 -28.5625 C 3.273438 -31.289062 4.117188 -34.613281 5.15625 -38.429688 C 5.554688 -39.871094 5.949219 -41.355469 6.398438 -42.945312 C 6.546875 -43.589844 6.742188 -44.234375 6.941406 -44.878906 L 7.4375 -46.761719 C 7.539062 -47.207031 7.4375 -47.554688 7.191406 -47.703125 C 6.894531 -47.851562 6.546875 -47.851562 6.199219 -47.703125 C 5.851562 -47.554688 5.601562 -47.207031 5.453125 -46.761719 L 4.910156 -44.878906 C 4.761719 -44.234375 4.5625 -43.589844 4.414062 -42.945312 C 4.015625 -41.457031 3.621094 -40.019531 3.222656 -38.679688 C 1.984375 -34.167969 1.042969 -30.347656 0.398438 -27.324219 C -0.246094 -24.25 -0.296875 -21.917969 0.246094 -20.382812 C 0.742188 -18.84375 2.132812 -18.050781 4.363281 -18.050781 C 6 -18.050781 7.636719 -18.496094 9.175781 -19.339844 C 10.710938 -20.183594 12.546875 -21.472656 14.679688 -23.207031 C 15.074219 -23.554688 15.273438 -23.851562 15.222656 -24.199219 C 15.175781 -24.546875 14.976562 -24.746094 14.679688 -24.894531 C 14.378906 -24.992188 14.035156 -24.894531 13.636719 -24.597656 Z M 13.636719 -24.597656 "/></g></g></g><g fill="#dfb15b" fill-opacity="1"><g transform="translate(256.839691, 208.860337)"><g><path d="M 5.554688 -22.511719 C 5.058594 -22.710938 4.761719 -22.960938 4.613281 -23.308594 C 4.464844 -23.652344 4.414062 -23.953125 4.5625 -24.25 C 4.710938 -24.597656 4.910156 -24.792969 5.15625 -24.792969 C 5.40625 -24.792969 5.554688 -24.597656 5.703125 -24.25 C 5.800781 -23.851562 5.753906 -23.257812 5.554688 -22.511719 Z M 15.421875 -24.597656 C 12.84375 -22.8125 10.164062 -22.015625 7.4375 -22.167969 C 7.984375 -24 7.984375 -25.242188 7.339844 -25.984375 C 6.695312 -26.726562 5.851562 -26.925781 4.859375 -26.679688 C 3.867188 -26.429688 3.125 -25.6875 2.628906 -24.445312 C 2.332031 -23.703125 2.332031 -22.960938 2.578125 -22.265625 C 2.828125 -21.519531 3.472656 -20.976562 4.464844 -20.628906 C 4.015625 -20.183594 3.472656 -19.933594 2.875 -19.933594 C 1.933594 -19.933594 1.488281 -20.382812 1.4375 -21.222656 C 1.386719 -22.066406 1.585938 -23.007812 2.03125 -23.953125 C 2.183594 -24.398438 2.183594 -24.746094 1.933594 -24.941406 C 1.6875 -25.140625 1.386719 -25.191406 1.042969 -25.140625 C 0.695312 -25.042969 0.398438 -24.792969 0.148438 -24.347656 C -0.695312 -22.316406 -0.894531 -20.726562 -0.347656 -19.585938 C 0.199219 -18.445312 1.089844 -17.902344 2.332031 -17.902344 C 3.816406 -17.902344 5.207031 -18.695312 6.445312 -20.230469 C 7.933594 -20.082031 9.570312 -20.230469 11.40625 -20.679688 C 13.191406 -21.125 14.875 -21.96875 16.464844 -23.15625 C 16.808594 -23.503906 17.007812 -23.800781 16.960938 -24.148438 C 16.910156 -24.496094 16.761719 -24.695312 16.464844 -24.84375 C 16.164062 -24.992188 15.820312 -24.894531 15.421875 -24.597656 Z M 15.421875 -24.597656 "/></g></g></g><g fill="#dfb15b" fill-opacity="1"><g transform="translate(275.816076, 208.860337)"><g><path d="M 21.917969 -24.695312 C 21.570312 -24.445312 21.222656 -24.148438 20.875 -23.902344 C 19.734375 -23.007812 18.546875 -22.167969 17.257812 -21.324219 C 15.917969 -20.480469 14.777344 -20.035156 13.734375 -20.035156 C 13.089844 -20.035156 12.695312 -20.230469 12.496094 -20.578125 C 12.25 -20.925781 12.148438 -21.621094 12.148438 -22.5625 C 12.199219 -23.109375 12.148438 -23.652344 12.101562 -24.25 C 12 -24.792969 11.753906 -25.289062 11.40625 -25.6875 C 11.058594 -26.082031 10.414062 -26.28125 9.570312 -26.28125 C 8.332031 -26.28125 6.941406 -25.785156 5.503906 -24.792969 C 4.066406 -23.753906 2.578125 -22.5625 1.089844 -21.125 C 1.339844 -22.066406 1.585938 -23.007812 1.835938 -23.902344 C 1.984375 -24.445312 2.132812 -24.894531 2.230469 -25.289062 C 2.332031 -25.738281 2.230469 -26.035156 1.984375 -26.183594 C 1.6875 -26.332031 1.339844 -26.332031 0.992188 -26.183594 C 0.644531 -26.035156 0.398438 -25.738281 0.246094 -25.289062 C 0.0976562 -24.84375 -0.0507812 -24.347656 -0.199219 -23.800781 C -0.445312 -22.910156 -0.644531 -22.015625 -0.894531 -21.125 C -1.140625 -20.230469 -1.238281 -19.539062 -1.289062 -18.992188 C -1.339844 -18.347656 -1.140625 -18 -0.695312 -17.851562 C -0.296875 -17.703125 0.246094 -17.902344 0.894531 -18.496094 C 2.378906 -19.933594 3.867188 -21.273438 5.355469 -22.511719 C 6.792969 -23.703125 8.035156 -24.296875 9.023438 -24.296875 C 9.472656 -24.296875 9.769531 -24.148438 9.917969 -23.851562 C 10.066406 -23.503906 10.117188 -22.910156 10.117188 -22.015625 C 10.066406 -21.472656 10.117188 -20.875 10.214844 -20.28125 C 10.3125 -19.636719 10.5625 -19.140625 11.007812 -18.695312 C 11.453125 -18.25 12.148438 -18.050781 13.191406 -18.050781 C 14.578125 -18.050781 16.015625 -18.546875 17.554688 -19.488281 C 19.089844 -20.429688 20.53125 -21.421875 21.867188 -22.464844 C 22.214844 -22.710938 22.511719 -22.960938 22.859375 -23.207031 C 23.257812 -23.554688 23.457031 -23.851562 23.457031 -24.199219 C 23.40625 -24.546875 23.257812 -24.746094 22.960938 -24.894531 C 22.660156 -25.042969 22.316406 -24.941406 21.917969 -24.695312 Z M 21.917969 -24.695312 "/></g></g></g><g fill="#dfb15b" fill-opacity="1"><g transform="translate(301.139629, 208.860337)"><g><path d="M -5.355469 8.777344 C -6.097656 9.324219 -6.59375 9.324219 -6.84375 8.777344 C -7.089844 8.230469 -7.191406 7.488281 -7.089844 6.546875 C -6.84375 4.3125 -5.753906 1.339844 -3.867188 -2.378906 C -1.984375 -6.050781 0.546875 -9.71875 3.71875 -13.339844 C 2.480469 -8.726562 1.042969 -4.265625 -0.546875 0.0507812 C -2.183594 4.363281 -3.769531 7.289062 -5.355469 8.777344 Z M 18.25 -25.09375 C 14.28125 -23.953125 10.613281 -21.96875 7.289062 -19.242188 C 7.6875 -20.679688 7.984375 -21.917969 8.230469 -22.910156 C 8.480469 -23.851562 8.679688 -24.597656 8.828125 -25.140625 C 8.925781 -25.785156 8.777344 -26.132812 8.332031 -26.28125 C 7.882812 -26.382812 7.488281 -26.230469 7.042969 -25.785156 C 6.894531 -25.585938 6.695312 -25.390625 6.496094 -25.140625 C 5.601562 -24.101562 4.5625 -22.960938 3.421875 -21.71875 C 2.230469 -20.480469 1.339844 -19.886719 0.742188 -19.886719 C 0.695312 -19.886719 0.644531 -19.886719 0.59375 -19.886719 C 0.546875 -19.886719 0.546875 -19.933594 0.496094 -19.984375 C 0.445312 -20.035156 0.398438 -20.132812 0.398438 -20.28125 C 0.398438 -20.828125 0.546875 -21.421875 0.84375 -22.117188 C 1.140625 -22.761719 1.488281 -23.308594 1.933594 -23.753906 C 2.378906 -24.199219 2.726562 -24.296875 3.074219 -24.050781 C 3.371094 -23.800781 3.71875 -23.800781 4.066406 -24 C 4.414062 -24.148438 4.660156 -24.445312 4.808594 -24.792969 C 4.957031 -25.140625 4.910156 -25.4375 4.613281 -25.738281 C 3.769531 -26.382812 2.828125 -26.480469 1.835938 -25.933594 C 0.84375 -25.390625 0 -24.546875 -0.644531 -23.355469 C -1.339844 -22.167969 -1.6875 -20.925781 -1.6875 -19.6875 C -1.539062 -18.445312 -0.941406 -17.851562 0.199219 -17.851562 C 1.140625 -17.851562 2.082031 -18.25 3.074219 -19.089844 C 4.066406 -19.886719 5.007812 -20.828125 5.949219 -21.917969 C 5.601562 -20.53125 5.207031 -18.84375 4.660156 -16.859375 C 0.644531 -12.894531 -2.527344 -8.679688 -4.957031 -4.265625 C -7.390625 0.148438 -8.828125 3.867188 -9.175781 6.894531 C -9.324219 9.175781 -8.875 10.511719 -7.785156 10.960938 C -6.695312 11.40625 -5.554688 11.109375 -4.3125 10.164062 C -2.378906 8.480469 -0.496094 5.257812 1.339844 0.445312 C 3.125 -4.3125 4.859375 -9.867188 6.496094 -16.164062 C 10.015625 -19.488281 13.933594 -21.867188 18.347656 -23.207031 C 18.792969 -23.355469 19.089844 -23.652344 19.242188 -24 C 19.390625 -24.347656 19.339844 -24.644531 19.191406 -24.894531 C 19.042969 -25.140625 18.695312 -25.242188 18.25 -25.09375 Z M 18.25 -25.09375 "/></g></g></g><g fill="#dfb15b" fill-opacity="1"><g transform="translate(322.744128, 208.860337)"><g><path d="M 4.613281 -24.398438 C 4.164062 -24.148438 3.421875 -24 2.378906 -23.953125 C 3.125 -24.398438 3.867188 -24.546875 4.613281 -24.398438 Z M 14.578125 -24.644531 C 10.066406 -21.324219 6.199219 -19.785156 2.976562 -20.035156 C 2.230469 -20.082031 1.734375 -20.230469 1.386719 -20.480469 C 1.042969 -20.726562 0.84375 -20.976562 0.792969 -21.273438 C 0.695312 -21.519531 0.695312 -21.820312 0.742188 -22.066406 C 2.679688 -21.820312 4.214844 -22.066406 5.40625 -22.761719 C 6.546875 -23.457031 7.042969 -24.25 6.894531 -25.191406 C 6.644531 -26.035156 5.949219 -26.480469 4.808594 -26.480469 C 3.667969 -26.429688 2.480469 -26.082031 1.289062 -25.339844 C 0.0507812 -24.597656 -0.742188 -23.503906 -1.191406 -22.167969 C -1.539062 -20.925781 -1.4375 -19.933594 -0.792969 -19.191406 C -0.148438 -18.445312 1.042969 -18.050781 2.777344 -18.050781 C 6.695312 -18.050781 10.910156 -19.734375 15.472656 -23.15625 C 15.867188 -23.457031 16.066406 -23.800781 16.066406 -24.148438 C 16.015625 -24.496094 15.867188 -24.746094 15.621094 -24.894531 C 15.324219 -25.042969 14.976562 -24.941406 14.578125 -24.644531 Z M 14.578125 -24.644531 "/></g></g></g></svg>